<?xml version="1.0" encoding="iso-8859-1"?>
<!-- Generator: Adobe Illustrator 19.0.0, SVG Export Plug-In . SVG Version: 6.00 Build 0)  -->
<svg version="1.1" id="Capa_1" xmlns="http://www.w3.org/2000/svg" xmlns:xlink="http://www.w3.org/1999/xlink" x="0px" y="0px"
	 viewBox="0 0 512 512" style="enable-background:new 0 0 512 512;" xml:space="preserve">
<g>
	<g>
		<path d="M415.984,0c-35.296,0-64,28.704-64,64s28.704,64,64,64c35.296,0,64-28.704,64-64S451.28,0,415.984,0z M415.984,96
			c-17.632,0-32-14.368-32-32s14.368-32,32-32c17.632,0,32,14.368,32,32S433.616,96,415.984,96z"/>
	</g>
</g>
<g>
	<g>
		<path d="M511.92,334.432l-14.432-145.824C495.6,172.288,481.904,160,465.584,160h-81.6c-8.832,0-16,7.168-16,16
			c0,8.832,7.168,16,16,16h81.664l12.672,128h-14.336c-8.032,0-14.816,5.984-15.872,13.952L433.584,448l-35.328-0.416l-8.32-65.6
			c-1.12-8.736-8.928-14.88-17.888-13.856c-8.768,1.12-14.976,9.12-13.856,17.888l8.32,65.376
			c1.856,16.32,15.552,28.608,31.872,28.608h35.2c16.32,0,30.016-12.288,31.872-28.384L478.032,352h17.952
			c4.512,0,8.832-1.92,11.872-5.248C510.896,343.392,512.368,338.912,511.92,334.432z"/>
	</g>
</g>
<g>
	<g>
		<path d="M95.984,0c-35.296,0-64,28.704-64,64s28.704,64,64,64s64-28.704,64-64S131.28,0,95.984,0z M95.984,96
			c-17.632,0-32-14.368-32-32s14.368-32,32-32s32,14.368,32,32S113.616,96,95.984,96z"/>
	</g>
</g>
<g>
	<g>
		<path d="M139.92,368.128c-8.736-0.992-16.768,5.12-17.888,13.856L113.584,448l-35.328-0.416L63.824,333.952
			C62.8,325.984,56.016,320,47.984,320H33.648l12.736-128h81.6c8.832,0,16-7.168,16-16c0-8.832-7.168-16-16-16h-81.6
			c-16.32,0-30.016,12.288-31.904,28.832l-14.4,145.6c-0.448,4.512,1.024,8.96,4.064,12.32C7.152,350.08,11.472,352,15.984,352
			h17.952l12.576,99.392C48.368,467.712,62.064,480,78.384,480h35.2c16.32,0,30.016-12.288,31.872-28.384l8.32-65.6
			C154.896,377.248,148.688,369.248,139.92,368.128z"/>
	</g>
</g>
<g>
	<g>
		<path d="M255.984,0c-35.296,0-64,28.704-64,64s28.704,64,64,64s64-28.704,64-64S291.28,0,255.984,0z M255.984,96
			c-17.632,0-32-14.368-32-32s14.368-32,32-32s32,14.368,32,32S273.616,96,255.984,96z"/>
	</g>
</g>
<g>
	<g>
		<path d="M351.92,334.4l-14.56-145.568C335.696,172.384,322,160,305.488,160H206.48c-16.512,0-30.208,12.384-31.84,28.8
			l-14.56,145.6c-0.448,4.512,1.024,8.992,4.064,12.32c3.008,3.36,7.328,5.28,11.84,5.28h17.504l13.12,131.168
			C208.272,499.616,221.968,512,238.48,512h35.04c16.512,0,30.208-12.384,31.84-28.8L318.48,352h17.504
			c4.512,0,8.832-1.92,11.872-5.28C350.896,343.392,352.368,338.88,351.92,334.4z M303.984,320c-8.224,0-15.104,6.24-15.936,14.4
			L273.488,480H238.48l-14.56-145.6c-0.832-8.16-7.712-14.4-15.936-14.4H193.68l12.8-128h99.04l12.8,128H303.984z"/>
	</g>
</g>
<g>
</g>
<g>
</g>
<g>
</g>
<g>
</g>
<g>
</g>
<g>
</g>
<g>
</g>
<g>
</g>
<g>
</g>
<g>
</g>
<g>
</g>
<g>
</g>
<g>
</g>
<g>
</g>
<g>
</g>
</svg>
