<svg id="light" enable-background="new 0 0 24 24" height="512" viewBox="0 0 24 24" width="512" xmlns="http://www.w3.org/2000/svg"><g><path d="m22.5 22h-11c-.827 0-1.5-.673-1.5-1.5v-10c0-.827.673-1.5 1.5-1.5h11c.827 0 1.5.673 1.5 1.5v10c0 .827-.673 1.5-1.5 1.5zm-11-12c-.275 0-.5.225-.5.5v10c0 .275.225.5.5.5h11c.275 0 .5-.225.5-.5v-10c0-.275-.225-.5-.5-.5z"/></g><g><path d="m22.5 6h-21c-.827 0-1.5-.673-1.5-1.5v-3c0-.827.673-1.5 1.5-1.5h21c.827 0 1.5.673 1.5 1.5v3c0 .827-.673 1.5-1.5 1.5zm-21-5c-.275 0-.5.225-.5.5v3c0 .275.225.5.5.5h21c.275 0 .5-.225.5-.5v-3c0-.275-.225-.5-.5-.5z"/></g><g><path d="m7.5 10h-7c-.276 0-.5-.224-.5-.5s.224-.5.5-.5h7c.276 0 .5.224.5.5s-.224.5-.5.5z"/></g><g><path d="m7.5 13h-7c-.276 0-.5-.224-.5-.5s.224-.5.5-.5h7c.276 0 .5.224.5.5s-.224.5-.5.5z"/></g><g><path d="m7.5 16h-7c-.276 0-.5-.224-.5-.5s.224-.5.5-.5h7c.276 0 .5.224.5.5s-.224.5-.5.5z"/></g><g><path d="m7.5 19h-7c-.276 0-.5-.224-.5-.5s.224-.5.5-.5h7c.276 0 .5.224.5.5s-.224.5-.5.5z"/></g><g><path d="m7.5 22h-7c-.276 0-.5-.224-.5-.5s.224-.5.5-.5h7c.276 0 .5.224.5.5s-.224.5-.5.5z"/></g><g><g><path d="m17 15c-.827 0-1.5-.673-1.5-1.5s.673-1.5 1.5-1.5 1.5.673 1.5 1.5-.673 1.5-1.5 1.5zm0-2c-.275 0-.5.225-.5.5s.225.5.5.5.5-.225.5-.5-.225-.5-.5-.5z"/></g><g><path d="m19.5 19c-.276 0-.5-.224-.5-.5v-.5c0-.552-.448-1-1-1h-2c-.552 0-1 .448-1 1v.5c0 .276-.224.5-.5.5s-.5-.224-.5-.5v-.5c0-1.103.897-2 2-2h2c1.103 0 2 .897 2 2v.5c0 .276-.224.5-.5.5z"/></g></g></svg>