<?xml version="1.0" encoding="UTF-8" standalone="no"?>
<svg
   xmlns:dc="http://purl.org/dc/elements/1.1/"
   xmlns:cc="http://creativecommons.org/ns#"
   xmlns:rdf="http://www.w3.org/1999/02/22-rdf-syntax-ns#"
   xmlns:svg="http://www.w3.org/2000/svg"
   xmlns="http://www.w3.org/2000/svg"
   xmlns:sodipodi="http://sodipodi.sourceforge.net/DTD/sodipodi-0.dtd"
   xmlns:inkscape="http://www.inkscape.org/namespaces/inkscape"
   sodipodi:docname="extensions.generadordni.svg"
   inkscape:version="1.0 (4035a4f, 2020-05-01)"
   id="svg8"
   version="1.1"
   viewBox="0 0 8.4666667 8.4666667"
   height="32"
   width="32">
  <defs
     id="defs2" />
  <sodipodi:namedview
     inkscape:window-maximized="0"
     inkscape:window-y="23"
     inkscape:window-x="0"
     inkscape:window-height="943"
     inkscape:window-width="1252"
     units="px"
     showgrid="false"
     inkscape:document-rotation="0"
     inkscape:current-layer="layer1"
     inkscape:document-units="mm"
     inkscape:cy="32.819727"
     inkscape:cx="53.186294"
     inkscape:zoom="9.8286422"
     inkscape:pageshadow="2"
     inkscape:pageopacity="0.0"
     borderopacity="1.0"
     bordercolor="#666666"
     pagecolor="#ffffff"
     id="base" />
  <metadata
     id="metadata5">
    <rdf:RDF>
      <cc:Work
         rdf:about="">
        <dc:format>image/svg+xml</dc:format>
        <dc:type
           rdf:resource="http://purl.org/dc/dcmitype/StillImage" />
        <dc:title></dc:title>
      </cc:Work>
    </rdf:RDF>
  </metadata>
  <g
     id="layer1"
     inkscape:groupmode="layer"
     inkscape:label="Layer 1">
    <g
       style="fill:none;fill-rule:evenodd;stroke:none;stroke-width:1"
       transform="matrix(0.26458333,0,0,0.26458333,0.6952105,0.24313031)"
       id="Page-1">
      <path
         id="Fill-1"
         fill="#2fbbf4"
         d="m 26.3391,17.0303 v 5.19 c 0,0.69 -0.068,1.241 -0.203,1.653 -0.136,0.412 -0.385,0.785 -0.748,1.117 -0.363,0.333 -0.828,0.653 -1.395,0.961 -1.637,0.886 -3.213,1.533 -4.728,1.939 -1.514,0.406 -3.164,0.61 -4.95,0.61 -2.081,0 -3.977,-0.32 -5.688,-0.961 -1.712,-0.64 -3.171,-1.57 -4.378,-2.789 -1.206,-1.219 -2.133,-2.696 -2.779,-4.432 -0.647,-1.737 -0.97,-3.676 -0.97,-5.818 0,-2.106 0.314,-4.033 0.942,-5.781 0.628,-1.749 1.551,-3.233 2.77,-4.452 1.219,-1.219 2.703,-2.151 4.452,-2.798 1.748,-0.646 3.73,-0.969 5.947,-0.969 1.822,0 3.435,0.243 4.839,0.729 1.404,0.487 2.542,1.099 3.417,1.838 0.874,0.739 1.533,1.521 1.976,2.346 0.443,0.825 0.665,1.557 0.665,2.197 0,0.69 -0.256,1.278 -0.767,1.764 -0.511,0.487 -1.123,0.73 -1.837,0.73 -0.394,0 -0.773,-0.092 -1.136,-0.277 -0.363,-0.185 -0.668,-0.443 -0.914,-0.776 -0.678,-1.059 -1.25,-1.859 -1.718,-2.401 -0.468,-0.542 -1.099,-0.997 -1.893,-1.367 -0.795,-0.369 -1.807,-0.554 -3.039,-0.554 -1.268,0 -2.401,0.219 -3.398,0.656 -0.997,0.437 -1.85,1.071 -2.558,1.902 -0.708,0.831 -1.25,1.85 -1.625,3.057 -0.376,1.207 -0.564,2.543 -0.564,4.008 0,3.177 0.73,5.621 2.189,7.332 1.459,1.712 3.494,2.568 6.104,2.568 1.268,0 2.46,-0.167 3.574,-0.499 1.114,-0.333 2.244,-0.807 3.389,-1.422 v -4.396 h -4.248 c -1.022,0 -1.794,-0.154 -2.318,-0.462 -0.523,-0.308 -0.785,-0.831 -0.785,-1.57 0,-0.603 0.219,-1.102 0.656,-1.496 0.437,-0.394 1.031,-0.591 1.782,-0.591 h 6.225 c 0.763,0 1.409,0.068 1.939,0.203 0.529,0.136 0.957,0.438 1.284,0.905 0.326,0.468 0.489,1.17 0.489,2.106" />
      <path
         stroke-linejoin="round"
         stroke="#092933"
         id="Stroke-3"
         d="m 26.3391,17.0303 v 5.19 c 0,0.69 -0.068,1.241 -0.203,1.653 -0.136,0.412 -0.385,0.785 -0.748,1.117 -0.363,0.333 -0.828,0.653 -1.395,0.961 -1.637,0.886 -3.213,1.533 -4.728,1.939 -1.514,0.406 -3.164,0.61 -4.95,0.61 -2.081,0 -3.977,-0.32 -5.688,-0.961 -1.712,-0.64 -3.171,-1.57 -4.378,-2.789 -1.206,-1.219 -2.133,-2.696 -2.779,-4.432 -0.647,-1.737 -0.97,-3.676 -0.97,-5.818 0,-2.106 0.314,-4.033 0.942,-5.781 0.628,-1.749 1.551,-3.233 2.77,-4.452 1.219,-1.219 2.703,-2.151 4.452,-2.798 1.748,-0.646 3.73,-0.969 5.947,-0.969 1.822,0 3.435,0.243 4.839,0.729 1.404,0.487 2.542,1.099 3.417,1.838 0.874,0.739 1.533,1.521 1.976,2.346 0.443,0.825 0.665,1.557 0.665,2.197 0,0.69 -0.256,1.278 -0.767,1.764 -0.511,0.487 -1.123,0.73 -1.837,0.73 -0.394,0 -0.773,-0.092 -1.136,-0.277 -0.363,-0.185 -0.668,-0.443 -0.914,-0.776 -0.678,-1.059 -1.25,-1.859 -1.718,-2.401 -0.468,-0.542 -1.099,-0.997 -1.893,-1.367 -0.795,-0.369 -1.807,-0.554 -3.039,-0.554 -1.268,0 -2.401,0.219 -3.398,0.656 -0.997,0.437 -1.85,1.071 -2.558,1.902 -0.708,0.831 -1.25,1.85 -1.625,3.057 -0.376,1.207 -0.564,2.543 -0.564,4.008 0,3.177 0.73,5.621 2.189,7.332 1.459,1.712 3.494,2.568 6.104,2.568 1.268,0 2.46,-0.167 3.574,-0.499 1.114,-0.333 2.244,-0.807 3.389,-1.422 v -4.396 h -4.248 c -1.022,0 -1.794,-0.154 -2.318,-0.462 -0.523,-0.308 -0.785,-0.831 -0.785,-1.57 0,-0.603 0.219,-1.102 0.656,-1.496 0.437,-0.394 1.031,-0.591 1.782,-0.591 h 6.225 c 0.763,0 1.409,0.068 1.939,0.203 0.529,0.136 0.957,0.438 1.284,0.905 0.326,0.468 0.489,1.17 0.489,2.106 z" />
      <path
         opacity="0.203766"
         id="Fill-5"
         fill="#332e09"
         d="m 25.6607,22.7178 c -0.108,0.332 -0.309,0.628 -0.61,0.905 -0.332,0.303 -0.768,0.603 -1.295,0.889 -1.596,0.863 -3.151,1.502 -4.62,1.895 -1.465,0.394 -3.087,0.593 -4.821,0.593 -2.009,0 -3.865,-0.312 -5.513,-0.928 -1.636,-0.613 -3.048,-1.512 -4.197,-2.672 -1.151,-1.163 -2.048,-2.595 -2.667,-4.256 -0.572,-1.535 -0.872,-3.269 -0.919,-5.146 -0.004,0.168 -0.019,0.331 -0.019,0.502 0,2.073 0.315,3.972 0.938,5.644 0.619,1.661 1.516,3.093 2.667,4.256 1.149,1.16 2.561,2.059 4.197,2.672 1.648,0.616 3.504,0.928 5.513,0.928 1.734,0 3.356,-0.199 4.821,-0.593 1.469,-0.393 3.024,-1.032 4.62,-1.895 0.527,-0.286 0.963,-0.586 1.295,-0.889 0.301,-0.277 0.502,-0.573 0.61,-0.905 0.119,-0.362 0.179,-0.865 0.179,-1.497 v -1 c 0,0.632 -0.06,1.135 -0.179,1.497" />
      <path
         stroke-linejoin="round"
         stroke-linecap="round"
         stroke-dasharray="1, 2, 6, 2, 3"
         stroke="#ffffff"
         id="Stroke-7"
         d="m 5.273,5.3281 c 1.059,-1.059 2.374,-1.883 3.911,-2.451 1.572,-0.582 3.399,-0.877 5.427,-0.877" />
    </g>
    <g
       transform="matrix(0.26458333,0,0,0.26458333,-14.624356,-273.71696)"
       id="g74">
      <g
         fill="#e67e22"
         id="g68">
        <path
           style="stroke-width:0.416399"
           d="m 85.79559,1038.0126 c 0,0.081 -0.0447,0.1613 -0.134093,0.242 l -1.875148,1.6944 0.443967,2.461 c 0.0034,0 0.0052,0.04 0.0052,0.081 0,0.081 -0.01891,0.121 -0.05673,0.1614 -0.03438,0.04 -0.08596,0.081 -0.155152,0.081 -0.06533,0 -0.134093,0 -0.206297,-0.04 l -2.319545,-1.17 -2.319374,1.17 c -0.07577,0.04 -0.144666,0.04 -0.20664,0.04 -0.07233,0 -0.127431,-0.04 -0.165295,-0.081 -0.03447,-0.04 -0.05166,-0.081 -0.05166,-0.1614 0,0 0.0034,-0.04 0.01032,-0.081 l 0.444268,-2.461 -1.880306,-1.6944 c -0.08609,-0.081 -0.12915,-0.1614 -0.12915,-0.242 0,-0.1211 0.09644,-0.2018 0.289288,-0.2018 l 2.593146,-0.363 1.162266,-2.2189 c 0.06533,-0.1211 0.149994,-0.2018 0.253143,-0.2018 0.103148,0 0.187815,0.081 0.253142,0.2018 l 1.162137,2.2189 2.593318,0.363 c 0.192973,0 0.289245,0.081 0.289245,0.2018"
           fill="#e67e22"
           id="path66" />
      </g>
      <g
         fill="#f1c40f"
         id="g72">
        <path
           style="stroke-width:0.416399"
           d="m 85.79559,1037.6091 c 0,0.081 -0.0447,0.1614 -0.134093,0.2421 l -1.875148,1.6944 0.443967,2.4609 c 0.0034,0 0.0052,0.04 0.0052,0.081 0,0.081 -0.01891,0.121 -0.05673,0.1614 -0.03438,0.04 -0.08596,0.081 -0.155152,0.081 -0.06533,0 -0.134093,0 -0.206297,-0.04 l -2.319545,-1.17 -2.319374,1.17 c -0.07577,0.04 -0.144666,0.04 -0.20664,0.04 -0.07233,0 -0.127431,-0.04 -0.165295,-0.081 -0.03447,-0.04 -0.05166,-0.081 -0.05166,-0.1614 0,0 0.0034,-0.04 0.01032,-0.081 l 0.444268,-2.4609 -1.880306,-1.6944 c -0.08609,-0.081 -0.12915,-0.1614 -0.12915,-0.2421 0,-0.121 0.09644,-0.2017 0.289288,-0.2017 l 2.593146,-0.3631 1.162266,-2.2189 c 0.06533,-0.121 0.149994,-0.2017 0.253143,-0.2017 0.103148,0 0.187815,0.081 0.253142,0.2017 l 1.162137,2.2189 2.593318,0.3631 c 0.192973,0 0.289245,0.081 0.289245,0.2017"
           fill="#f1c40f"
           id="path70" />
      </g>
    </g>
  </g>
</svg>
